<svg version="1.1" id="Layer_1" xmlns="http://www.w3.org/2000/svg" xmlns:xlink="http://www.w3.org/1999/xlink" x="px" y="0px"
	 width="100%" viewBox="50 50 400 600" enable-background="new 0 0 500 500" xml:space="preserve">
<path fill="#FFFFFF" opacity="1.000000" stroke="none" 
	d="
M340.000000,501.000000 
	C226.666687,501.000000 113.833389,501.000000 1.000061,501.000000 
	C1.000040,334.333405 1.000040,167.666794 1.000020,1.000150 
	C167.666565,1.000100 334.333130,1.000100 500.999756,1.000050 
	C500.999847,167.666519 500.999847,334.333038 500.999939,500.999786 
	C447.500000,501.000000 394.000000,501.000000 340.000000,501.000000 
M84.786873,161.302338 
	C65.210770,161.302338 45.634666,161.302338 26.066433,161.302338 
	C26.066433,165.808640 26.066433,169.542252 26.066433,173.841904 
	C99.091049,173.841904 171.767960,173.841904 244.985596,173.841904 
	C244.985596,219.981293 244.985596,265.548492 244.985596,311.067902 
	C249.287231,311.067902 253.030350,311.067902 256.649811,311.067902 
	C256.649811,261.121002 256.649811,211.556244 256.649811,161.404663 
	C254.342758,161.404663 252.388977,161.419891 250.435486,161.402237 
	C235.133575,161.264023 219.831726,161.119492 204.367020,160.182144 
	C204.105957,159.222702 203.905960,158.241638 203.575043,157.306931 
	C191.576736,123.415970 150.852127,106.882912 118.219902,122.887260 
	C101.973091,130.855423 90.655373,143.331421 84.786873,161.302338 
M109.276802,217.092575 
	C109.214890,215.928802 109.168732,214.763962 109.088654,213.601440 
	C108.127747,199.651093 100.728806,192.279572 86.909859,191.777283 
	C80.590973,191.547607 74.258392,191.689163 67.931992,191.673248 
	C63.702366,191.662628 59.472687,191.671234 55.337410,191.671234 
	C55.337410,228.860626 55.337410,265.255737 55.337410,302.004456 
	C64.722366,302.004456 73.847237,302.014862 82.972076,302.002197 
	C99.814095,301.978790 108.229500,294.889984 108.938820,277.914154 
	C109.771912,257.976013 109.243423,237.980942 109.276802,217.092575 
M325.059509,211.568954 
	C323.014435,200.253311 316.784607,193.222824 306.485931,191.361603 
	C302.599426,190.659195 298.510284,190.726364 294.537018,190.921326 
	C282.220032,191.525681 273.893555,198.841675 272.051300,210.975281 
	C271.256805,216.207687 271.115784,221.583694 271.158081,226.890656 
	C271.299927,244.700958 270.902222,262.563446 272.167328,280.302124 
	C273.221619,295.085144 283.620331,303.049316 298.752563,303.004669 
	C313.463318,302.961273 324.005951,294.840179 324.785706,280.289459 
	C325.951447,258.535583 325.434967,236.691330 325.605469,214.885300 
	C325.611847,214.067825 325.318909,213.248047 325.059509,211.568954 
M333.281799,276.050659 
	C333.529022,277.865387 333.718597,279.690186 334.033508,281.493103 
	C335.340881,288.977753 338.153595,295.592163 345.120819,299.574097 
	C363.389496,310.015076 383.940826,300.044678 386.750885,279.375275 
	C387.041168,277.240051 387.009216,275.051758 387.011078,272.888000 
	C387.032806,247.392120 387.037262,221.896225 387.025299,196.400345 
	C387.024597,194.956940 386.840881,193.513641 386.745758,192.120331 
	C379.593933,192.120331 372.860687,192.120331 365.703613,192.120331 
	C365.703613,194.309372 365.703613,196.112595 365.703613,197.915817 
	C365.703613,220.578857 365.742096,243.242020 365.668610,265.904816 
	C365.655121,270.059784 365.617126,274.309113 364.724365,278.322235 
	C364.345581,280.024780 361.867889,282.089600 360.089111,282.369568 
	C358.834290,282.567078 356.491028,280.304810 355.819489,278.657379 
	C354.920166,276.451263 354.959442,273.778351 354.953979,271.305115 
	C354.899506,246.642502 354.918793,221.979736 354.917267,197.317017 
	C354.917145,195.565048 354.917236,193.813080 354.917236,192.014542 
	C347.334442,192.014542 340.561829,192.014542 333.236938,192.014542 
	C333.236938,219.905045 333.236938,247.516846 333.281799,276.050659 
M168.056549,237.289474 
	C166.635941,222.214951 165.215332,207.140427 163.793594,192.054031 
	C151.145233,192.054031 138.758743,192.054031 126.284637,192.054031 
	C122.737335,228.812637 119.225700,265.201630 115.704201,301.692902 
	C123.204811,301.692902 130.090363,301.692902 137.072464,301.692902 
	C137.585251,295.665527 138.072281,289.941132 138.548080,284.348572 
	C143.266296,284.348572 147.377731,284.348572 151.689270,284.348572 
	C152.270279,290.294800 152.829041,296.013214 153.383469,301.687378 
	C160.519547,301.687378 167.265289,301.687378 174.292389,301.687378 
	C172.213104,280.298889 170.166916,259.250916 168.056549,237.289474 
M209.799805,198.224609 
	C208.226562,207.363953 206.653305,216.503311 205.080063,225.642654 
	C204.761566,225.605225 204.443054,225.567795 204.124542,225.530365 
	C202.266449,214.403198 200.408356,203.276031 198.520096,191.968155 
	C191.285751,191.968155 184.242615,191.968155 176.736694,191.968155 
	C180.034927,205.893768 183.199707,219.448410 186.461548,232.979645 
	C190.663361,250.410156 195.859604,267.662292 194.229431,285.979828 
	C193.764542,291.203491 194.158264,296.503540 194.158264,301.799927 
	C201.406769,301.799927 208.007828,301.799927 215.039597,301.799927 
	C215.039597,295.156616 214.897202,288.704010 215.077728,282.260498 
	C215.277313,275.137177 214.964355,267.864868 216.311829,260.937012 
	C218.910614,247.575577 222.546997,234.417130 225.701797,221.162262 
	C227.994217,211.530640 230.203995,201.879349 232.530334,191.894684 
	C224.973846,191.894684 218.067734,191.894684 210.863800,191.894684 
	C210.529877,193.829254 210.223236,195.605820 209.799805,198.224609 
M427.794464,213.128082 
	C431.732086,213.128082 435.669678,213.128082 439.709839,213.128082 
	C439.709839,205.581497 439.709839,198.856445 439.709839,192.133240 
	C423.655518,192.133240 407.947357,192.133240 392.298370,192.133240 
	C392.298370,199.244781 392.298370,205.952850 392.298370,213.093674 
	C396.649933,213.093674 400.579102,213.093674 405.051514,213.093674 
	C405.051514,242.910385 405.051514,272.279877 405.051514,301.611572 
	C412.677399,301.611572 419.726532,301.611572 427.162048,301.611572 
	C427.162048,272.094452 427.162048,242.964478 427.794464,213.128082 
M62.545509,138.899094 
	C65.574341,140.636139 68.551903,142.471527 71.645523,144.084305 
	C75.181648,145.927765 78.309189,144.974350 80.231834,141.659927 
	C82.081886,138.470642 81.087219,135.440811 78.034592,133.429504 
	C74.984398,131.419785 71.695618,129.775970 68.593834,127.839729 
	C65.011597,125.603592 61.655014,125.357544 58.891766,128.941040 
	C56.564098,131.959656 57.782597,135.474121 62.545509,138.899094 
M224.989655,140.496887 
	C226.432709,139.670212 227.961517,138.962082 229.301483,137.992874 
	C232.341644,135.793915 233.848557,132.921280 231.622955,129.421585 
	C229.568359,126.190773 226.543747,125.198303 223.007782,127.154869 
	C219.513870,129.088165 216.002090,131.013443 212.661880,133.193161 
	C209.539459,135.230759 208.015472,138.155762 210.126053,141.712173 
	C212.121307,145.074249 215.166504,145.881561 218.708740,144.061417 
	C220.630417,143.073959 222.476349,141.939102 224.989655,140.496887 
M97.305244,109.198586 
	C97.838898,110.043137 98.383202,110.881172 98.904358,111.733368 
	C101.132866,115.377449 104.399193,116.205917 107.863258,114.136650 
	C111.220207,112.131371 111.674660,108.879036 109.723419,105.453018 
	C107.747803,101.984245 105.876831,98.438095 103.648117,95.136375 
	C101.542122,92.016449 98.478294,90.770844 95.019997,92.923599 
	C91.630341,95.033615 91.185852,98.171967 93.011452,101.611763 
	C94.258530,103.961517 95.640976,106.239426 97.305244,109.198586 
M138.990143,94.345825 
	C138.990265,95.172821 139.023727,96.001389 138.984894,96.826546 
	C138.794891,100.860733 140.321228,103.659187 144.621689,104.075516 
	C149.004807,104.499832 151.165222,101.737320 151.494781,97.919304 
	C151.861420,93.671478 151.680222,89.337502 151.314728,85.077301 
	C151.006149,81.480385 148.697220,79.289093 144.987671,79.498886 
	C141.140259,79.716476 138.983505,81.940758 138.991562,85.960625 
	C138.996521,88.441612 138.990967,90.922623 138.990143,94.345825 
M181.838257,103.354652 
	C181.590500,103.785881 181.319931,104.205750 181.098495,104.650101 
	C178.841309,109.179306 179.445297,112.824524 182.967682,114.410210 
	C187.079758,116.261345 189.953171,114.486351 192.002945,110.818901 
	C193.537735,108.072800 195.200043,105.396568 196.688766,102.626442 
	C199.091187,98.156197 198.492767,94.521889 194.913849,92.747032 
	C190.768127,90.691109 187.976318,92.662346 185.908890,96.249947 
	C184.667847,98.403496 183.407883,100.546158 181.838257,103.354652 
z"/>
<path fill="#2B2B2B" opacity="1.000000" stroke="none" 
	d="
M109.291122,217.551575 
	C109.243423,237.980942 109.771912,257.976013 108.938820,277.914154 
	C108.229500,294.889984 99.814095,301.978790 82.972076,302.002197 
	C73.847237,302.014862 64.722366,302.004456 55.337410,302.004456 
	C55.337410,265.255737 55.337410,228.860626 55.337410,191.671234 
	C59.472687,191.671234 63.702366,191.662628 67.931992,191.673248 
	C74.258392,191.689163 80.590973,191.547607 86.909859,191.777283 
	C100.728806,192.279572 108.127747,199.651093 109.088654,213.601440 
	C109.168732,214.763962 109.214890,215.928802 109.291122,217.551575 
M77.267296,237.499924 
	C77.267296,252.287521 77.267296,267.075134 77.267296,281.776489 
	C84.990089,283.254456 87.169754,281.699615 87.181412,274.871063 
	C87.213280,256.209076 87.237244,237.546738 87.152802,218.885040 
	C87.119110,211.439682 85.121391,210.018631 77.267326,211.645416 
	C77.267326,219.882309 77.267326,228.191101 77.267296,237.499924 
z"/>
<path fill="#80DA5A" opacity="1.000000" stroke="none" 
	d="
M325.112488,211.999146 
	C325.318909,213.248047 325.611847,214.067825 325.605469,214.885300 
	C325.434967,236.691330 325.951447,258.535583 324.785706,280.289459 
	C324.005951,294.840179 313.463318,302.961273 298.752563,303.004669 
	C283.620331,303.049316 273.221619,295.085144 272.167328,280.302124 
	C270.902222,262.563446 271.299927,244.700958 271.158081,226.890656 
	C271.115784,221.583694 271.256805,216.207687 272.051300,210.975281 
	C273.893555,198.841675 282.220032,191.525681 294.537018,190.921326 
	C298.510284,190.726364 302.599426,190.659195 306.485931,191.361603 
	C316.784607,193.222824 323.014435,200.253311 325.112488,211.999146 
M303.297943,241.500031 
	C303.278900,233.515656 303.321838,225.530426 303.209167,217.547363 
	C303.166260,214.506393 302.973663,211.205917 298.768066,211.034958 
	C294.494141,210.861221 293.781677,214.165665 293.165436,217.354782 
	C292.978546,218.321945 293.050140,219.344360 293.049866,220.341492 
	C293.044800,237.807983 293.010620,255.274643 293.091614,272.740753 
	C293.102234,275.031433 293.222595,277.563416 294.204498,279.527557 
	C294.926697,280.972290 297.115997,282.422974 298.693481,282.470215 
	C299.989136,282.509064 301.940460,280.733521 302.530792,279.316315 
	C303.322205,277.416443 303.243042,275.087769 303.257019,272.941406 
	C303.323212,262.794617 303.293762,252.647217 303.297943,241.500031 
z"/>
<path fill="#7FD959" opacity="1.000000" stroke="none" 
	d="
M333.259369,275.589661 
	C333.236938,247.516846 333.236938,219.905045 333.236938,192.014542 
	C340.561829,192.014542 347.334442,192.014542 354.917236,192.014542 
	C354.917236,193.813080 354.917145,195.565048 354.917267,197.317017 
	C354.918793,221.979736 354.899506,246.642502 354.953979,271.305115 
	C354.959442,273.778351 354.920166,276.451263 355.819489,278.657379 
	C356.491028,280.304810 358.834290,282.567078 360.089111,282.369568 
	C361.867889,282.089600 364.345581,280.024780 364.724365,278.322235 
	C365.617126,274.309113 365.655121,270.059784 365.668610,265.904816 
	C365.742096,243.242020 365.703613,220.578857 365.703613,197.915817 
	C365.703613,196.112595 365.703613,194.309372 365.703613,192.120331 
	C372.860687,192.120331 379.593933,192.120331 386.745758,192.120331 
	C386.840881,193.513641 387.024597,194.956940 387.025299,196.400345 
	C387.037262,221.896225 387.032806,247.392120 387.011078,272.888000 
	C387.009216,275.051758 387.041168,277.240051 386.750885,279.375275 
	C383.940826,300.044678 363.389496,310.015076 345.120819,299.574097 
	C338.153595,295.592163 335.340881,288.977753 334.033508,281.493103 
	C333.718597,279.690186 333.529022,277.865387 333.259369,275.589661 
z"/>
<path fill="#2B2B2B" opacity="1.000000" stroke="none" 
	d="
M168.088638,237.746185 
	C170.166916,259.250916 172.213104,280.298889 174.292389,301.687378 
	C167.265289,301.687378 160.519547,301.687378 153.383469,301.687378 
	C152.829041,296.013214 152.270279,290.294800 151.689270,284.348572 
	C147.377731,284.348572 143.266296,284.348572 138.548080,284.348572 
	C138.072281,289.941132 137.585251,295.665527 137.072464,301.692902 
	C130.090363,301.692902 123.204811,301.692902 115.704201,301.692902 
	C119.225700,265.201630 122.737335,228.812637 126.284637,192.054031 
	C138.758743,192.054031 151.145233,192.054031 163.793594,192.054031 
	C165.215332,207.140427 166.635941,222.214951 168.088638,237.746185 
M147.594727,236.795349 
	C146.797485,228.143585 146.000244,219.491821 145.203003,210.840042 
	C144.848419,210.869247 144.493835,210.898438 144.139267,210.927628 
	C142.790756,229.304794 141.442261,247.681976 140.074188,266.325836 
	C143.575027,266.325836 146.652222,266.325836 150.077530,266.325836 
	C149.271210,256.587006 148.489914,247.150650 147.594727,236.795349 
z"/>
<path fill="#2E2D2D" opacity="1.000000" stroke="none" 
	d="
M204.529846,160.976898 
	C219.831726,161.119492 235.133575,161.264023 250.435486,161.402237 
	C252.388977,161.419891 254.342758,161.404663 256.649811,161.404663 
	C256.649811,211.556244 256.649811,261.121002 256.649811,311.067902 
	C253.030350,311.067902 249.287231,311.067902 244.985596,311.067902 
	C244.985596,265.548492 244.985596,219.981293 244.985596,173.841904 
	C171.767960,173.841904 99.091049,173.841904 26.066433,173.841904 
	C26.066433,169.542252 26.066433,165.808640 26.066433,161.302338 
	C45.634666,161.302338 65.210770,161.302338 85.701172,161.292221 
	C90.660980,161.232285 94.706482,161.182449 99.228859,161.247803 
	C119.164909,161.377151 138.624146,161.427795 158.083237,161.391434 
	C169.216461,161.370651 180.349396,161.208298 191.907028,161.219986 
	C196.397675,161.212494 200.463760,161.094696 204.529846,160.976898 
z"/>
<path fill="#2B2B2B" opacity="1.000000" stroke="none" 
	d="
M209.858200,197.803497 
	C210.223236,195.605820 210.529877,193.829254 210.863800,191.894684 
	C218.067734,191.894684 224.973846,191.894684 232.530334,191.894684 
	C230.203995,201.879349 227.994217,211.530640 225.701797,221.162262 
	C222.546997,234.417130 218.910614,247.575577 216.311829,260.937012 
	C214.964355,267.864868 215.277313,275.137177 215.077728,282.260498 
	C214.897202,288.704010 215.039597,295.156616 215.039597,301.799927 
	C208.007828,301.799927 201.406769,301.799927 194.158264,301.799927 
	C194.158264,296.503540 193.764542,291.203491 194.229431,285.979828 
	C195.859604,267.662292 190.663361,250.410156 186.461548,232.979645 
	C183.199707,219.448410 180.034927,205.893768 176.736694,191.968155 
	C184.242615,191.968155 191.285751,191.968155 198.520096,191.968155 
	C200.408356,203.276031 202.266449,214.403198 204.124542,225.530365 
	C204.443054,225.567795 204.761566,225.605225 205.080063,225.642654 
	C206.653305,216.503311 208.226562,207.363953 209.858200,197.803497 
z"/>
<path fill="#7ED957" opacity="1.000000" stroke="none" 
	d="
M427.478271,213.481293 
	C427.162048,242.964478 427.162048,272.094452 427.162048,301.611572 
	C419.726532,301.611572 412.677399,301.611572 405.051514,301.611572 
	C405.051514,272.279877 405.051514,242.910385 405.051514,213.093674 
	C400.579102,213.093674 396.649933,213.093674 392.298370,213.093674 
	C392.298370,205.952850 392.298370,199.244781 392.298370,192.133240 
	C407.947357,192.133240 423.655518,192.133240 439.709839,192.133240 
	C439.709839,198.856445 439.709839,205.581497 439.709839,213.128082 
	C435.669678,213.128082 431.732086,213.128082 427.478271,213.481293 
z"/>
<path fill="#F9BC5E" opacity="1.000000" stroke="none" 
	d="
M98.751984,161.132629 
	C94.706482,161.182449 90.660980,161.232285 86.132103,161.162888 
	C90.655373,143.331421 101.973091,130.855423 118.219902,122.887260 
	C150.852127,106.882912 191.576736,123.415970 203.575043,157.306931 
	C203.905960,158.241638 204.105957,159.222702 204.448425,160.579529 
	C200.463760,161.094696 196.397675,161.212494 191.780518,160.855499 
	C182.813965,138.481232 158.271042,125.297058 135.093872,130.432571 
	C117.676201,134.291916 105.349991,144.369827 98.751984,161.132629 
z"/>
<path fill="#FFBF5E" opacity="1.000000" stroke="none" 
	d="
M62.233986,138.695297 
	C57.782597,135.474121 56.564098,131.959656 58.891766,128.941040 
	C61.655014,125.357544 65.011597,125.603592 68.593834,127.839729 
	C71.695618,129.775970 74.984398,131.419785 78.034592,133.429504 
	C81.087219,135.440811 82.081886,138.470642 80.231834,141.659927 
	C78.309189,144.974350 75.181648,145.927765 71.645523,144.084305 
	C68.551903,142.471527 65.574341,140.636139 62.233986,138.695297 
z"/>
<path fill="#FFBF5F" opacity="1.000000" stroke="none" 
	d="
M224.673050,140.683807 
	C222.476349,141.939102 220.630417,143.073959 218.708740,144.061417 
	C215.166504,145.881561 212.121307,145.074249 210.126053,141.712173 
	C208.015472,138.155762 209.539459,135.230759 212.661880,133.193161 
	C216.002090,131.013443 219.513870,129.088165 223.007782,127.154869 
	C226.543747,125.198303 229.568359,126.190773 231.622955,129.421585 
	C233.848557,132.921280 232.341644,135.793915 229.301483,137.992874 
	C227.961517,138.962082 226.432709,139.670212 224.673050,140.683807 
z"/>
<path fill="#FFBF5E" opacity="1.000000" stroke="none" 
	d="
M97.134064,108.874023 
	C95.640976,106.239426 94.258530,103.961517 93.011452,101.611763 
	C91.185852,98.171967 91.630341,95.033615 95.019997,92.923599 
	C98.478294,90.770844 101.542122,92.016449 103.648117,95.136375 
	C105.876831,98.438095 107.747803,101.984245 109.723419,105.453018 
	C111.674660,108.879036 111.220207,112.131371 107.863258,114.136650 
	C104.399193,116.205917 101.132866,115.377449 98.904358,111.733368 
	C98.383202,110.881172 97.838898,110.043137 97.134064,108.874023 
z"/>
<path fill="#FFBF5E" opacity="1.000000" stroke="none" 
	d="
M138.990128,93.874725 
	C138.990967,90.922623 138.996521,88.441612 138.991562,85.960625 
	C138.983505,81.940758 141.140259,79.716476 144.987671,79.498886 
	C148.697220,79.289093 151.006149,81.480385 151.314728,85.077301 
	C151.680222,89.337502 151.861420,93.671478 151.494781,97.919304 
	C151.165222,101.737320 149.004807,104.499832 144.621689,104.075516 
	C140.321228,103.659187 138.794891,100.860733 138.984894,96.826546 
	C139.023727,96.001389 138.990265,95.172821 138.990128,93.874725 
z"/>
<path fill="#FFBF5D" opacity="1.000000" stroke="none" 
	d="
M181.997345,103.024185 
	C183.407883,100.546158 184.667847,98.403496 185.908890,96.249947 
	C187.976318,92.662346 190.768127,90.691109 194.913849,92.747032 
	C198.492767,94.521889 199.091187,98.156197 196.688766,102.626442 
	C195.200043,105.396568 193.537735,108.072800 192.002945,110.818901 
	C189.953171,114.486351 187.079758,116.261345 182.967682,114.410210 
	C179.445297,112.824524 178.841309,109.179306 181.098495,104.650101 
	C181.319931,104.205750 181.590500,103.785881 181.997345,103.024185 
z"/>
<path fill="#F7F7F7" opacity="1.000000" stroke="none" 
	d="
M77.267311,236.999908 
	C77.267326,228.191101 77.267326,219.882309 77.267326,211.645416 
	C85.121391,210.018631 87.119110,211.439682 87.152802,218.885040 
	C87.237244,237.546738 87.213280,256.209076 87.181412,274.871063 
	C87.169754,281.699615 84.990089,283.254456 77.267296,281.776489 
	C77.267296,267.075134 77.267296,252.287521 77.267311,236.999908 
z"/>
<path fill="#FDFEFC" opacity="1.000000" stroke="none" 
	d="
M303.298157,242.000031 
	C303.293762,252.647217 303.323212,262.794617 303.257019,272.941406 
	C303.243042,275.087769 303.322205,277.416443 302.530792,279.316315 
	C301.940460,280.733521 299.989136,282.509064 298.693481,282.470215 
	C297.115997,282.422974 294.926697,280.972290 294.204498,279.527557 
	C293.222595,277.563416 293.102234,275.031433 293.091614,272.740753 
	C293.010620,255.274643 293.044800,237.807983 293.049866,220.341492 
	C293.050140,219.344360 292.978546,218.321945 293.165436,217.354782 
	C293.781677,214.165665 294.494141,210.861221 298.768066,211.034958 
	C302.973663,211.205917 303.166260,214.506393 303.209167,217.547363 
	C303.321838,225.530426 303.278900,233.515656 303.298157,242.000031 
z"/>
<path fill="#F2F2F2" opacity="1.000000" stroke="none" 
	d="
M147.651672,237.254822 
	C148.489914,247.150650 149.271210,256.587006 150.077530,266.325836 
	C146.652222,266.325836 143.575027,266.325836 140.074188,266.325836 
	C141.442261,247.681976 142.790756,229.304794 144.139267,210.927628 
	C144.493835,210.898438 144.848419,210.869247 145.203003,210.840042 
	C146.000244,219.491821 146.797485,228.143585 147.651672,237.254822 
z"/>
<path fill="#FFFFFE" opacity="1.000000" stroke="none" 
	d="
M99.228859,161.247803 
	C105.349991,144.369827 117.676201,134.291916 135.093872,130.432571 
	C158.271042,125.297058 182.813965,138.481232 191.355957,160.745209 
	C180.349396,161.208298 169.216461,161.370651 158.083237,161.391434 
	C138.624146,161.427795 119.164909,161.377151 99.228859,161.247803 
z"/>
</svg>