<svg xmlns="http://www.w3.org/2000/svg" version="1.1" xmlns:xlink="http://www.w3.org/1999/xlink" xmlns:svgjs="http://svgjs.dev/svgjs" width="765" height="625" viewBox="0 0 300 300" class="svg-animations " style="background-color: rgb(255, 255, 255);"><svg viewBox="0 0 133.99880981445312 138.99441528320312" width="70" height="70" style="fill: rgb(144, 190, 109);" x="115" y="86.95000076293945"><svg width="134" height="134" viewBox="0 0 134 134" xmlns="http://www.w3.org/2000/svg">
	<g clip-path="url(#clip0)">
	<path d="M29.0904 46.1547C29.0904 46.1547 18.2611 30.5397 10.9648 32.177C6.34874 33.2324 4.62957 44.6122 29.0904 46.1547Z"></path>
	<path d="M66.0999 23.7607C66.0999 23.7607 74.2219 6.57602 69.1456 1.08233C65.9239 -2.3952 55.2163 1.81302 66.0999 23.7607Z"></path>
	<path d="M104.003 44.5987C104.003 44.5987 122.954 43.0426 125.174 35.8981C126.582 31.3651 117.58 24.1936 104.003 44.5987Z"></path>
	<path d="M104.909 87.8311C104.909 87.8311 115.739 103.446 123.035 101.809C127.665 100.767 129.37 89.3871 104.909 87.8311Z"></path>
	<path d="M67.9001 110.226C67.9001 110.226 59.7781 127.41 64.8544 132.904C68.0761 136.395 78.7972 132.173 67.9001 110.226Z"></path>
	<path d="M29.9972 89.3872C29.9972 89.3872 11.0458 90.9433 8.82581 98.0878C7.41799 102.621 16.4199 109.792 29.9972 89.3872Z"></path>
	<path d="M29.0904 46.1547C29.0904 46.1547 18.2611 30.5397 10.9648 32.177C6.34874 33.2324 4.62957 44.6122 29.0904 46.1547Z"></path>
	<path d="M66.0999 23.7607C66.0999 23.7607 74.2219 6.57602 69.1456 1.08233C65.9239 -2.3952 55.2163 1.81302 66.0999 23.7607Z"></path>
	<path d="M104.003 44.5987C104.003 44.5987 122.954 43.0426 125.174 35.8981C126.582 31.3651 117.58 24.1936 104.003 44.5987Z"></path>
	<path d="M104.909 87.8311C104.909 87.8311 115.739 103.446 123.035 101.809C127.665 100.767 129.37 89.3871 104.909 87.8311Z"></path>
	<path d="M67.9001 110.226C67.9001 110.226 59.7781 127.41 64.8544 132.904C68.0761 136.395 78.7972 132.173 67.9001 110.226Z"></path>
	<path d="M43.8591 30.4588C43.8591 30.4588 41.9233 11.5557 34.7353 9.47185C30.187 8.15932 23.1885 17.3064 43.8591 30.4588Z"></path>
	<path d="M87.0818 28.6997C87.0818 28.6997 102.487 17.577 100.7 10.3107C99.5626 5.69654 88.1512 4.22163 87.0818 28.6997Z"></path>
	<path d="M110.229 65.234C110.229 65.234 127.57 73.0145 132.971 67.832C136.382 64.5439 131.969 53.9084 110.229 65.234Z"></path>
	<path d="M90.1409 103.527C90.1409 103.527 92.0766 122.431 99.2646 124.514C103.827 125.84 110.825 116.693 90.1409 103.527Z"></path>
	<path d="M46.9184 105.3C46.9184 105.3 31.5136 116.423 33.3005 123.689C34.4376 128.29 45.8626 129.778 46.9184 105.3Z"></path>
	<path d="M23.784 68.7656C23.784 68.7656 6.4435 60.9852 1.04234 66.1676C-2.38245 69.4557 2.04406 80.0777 23.784 68.7656Z"></path>
	<path d="M43.8591 30.4588C43.8591 30.4588 41.9233 11.5557 34.7353 9.47185C30.187 8.15932 23.1885 17.3064 43.8591 30.4588Z"></path>
	<path d="M87.0818 28.6997C87.0818 28.6997 102.487 17.577 100.7 10.3107C99.5626 5.69654 88.1512 4.22163 87.0818 28.6997Z"></path>
	<path d="M110.229 65.234C110.229 65.234 127.57 73.0145 132.971 67.832C136.382 64.5439 131.969 53.9084 110.229 65.234Z"></path>
	<path d="M90.1409 103.527C90.1409 103.527 92.0766 122.431 99.2646 124.514C103.827 125.84 110.825 116.693 90.1409 103.527Z"></path>
	<path d="M46.9184 105.3C46.9184 105.3 31.5136 116.423 33.3005 123.689C34.4376 128.29 45.8626 129.778 46.9184 105.3Z"></path>
	<path d="M70.7024 29.6605C50.6003 28.118 33.0432 43.1647 31.5 63.2586C31.0127 69.6183 32.1904 75.7074 34.6541 81.1199C34.6541 81.1334 34.6676 81.1469 34.6676 81.1605C34.7353 81.3228 34.8165 81.4717 34.8842 81.6205C34.9654 81.7964 35.0602 81.9859 35.1414 82.1618C35.358 82.5948 35.5746 83.0142 35.8047 83.4473C35.8995 83.6232 36.0078 83.7991 36.1025 83.975C36.292 84.2997 36.4816 84.6245 36.6711 84.9357C36.7658 85.0845 36.847 85.2334 36.9283 85.3687C37.1855 85.7882 37.4562 86.1941 37.7405 86.6C37.8488 86.7624 37.9571 86.9248 38.0789 87.0872C38.3361 87.439 38.5933 87.7908 38.8505 88.1426C38.9452 88.2779 39.0535 88.3997 39.1483 88.535C39.419 88.8868 39.7033 89.2251 39.9876 89.5634C40.0959 89.6987 40.2177 89.834 40.3395 89.9693C40.6779 90.3482 41.0164 90.7271 41.3683 91.1059C41.3954 91.133 41.4089 91.1601 41.436 91.1736V91.1601C47.4463 97.4927 55.7308 101.701 65.1117 102.432C70.5264 102.851 75.738 102.039 80.5165 100.28C80.5571 100.267 80.5842 100.267 80.6248 100.253C80.7331 100.212 80.8278 100.172 80.9226 100.131C81.1933 100.023 81.4641 99.9148 81.7213 99.8065C82.1138 99.6442 82.5064 99.4818 82.899 99.3059C83.0343 99.2382 83.1832 99.1841 83.3321 99.1164C83.3186 99.1164 83.3051 99.1164 83.2915 99.1164C91.5354 95.2736 98.1684 88.4538 101.674 79.9156C104.097 73.1229 103.542 65.4642 103.542 65.4642C101.525 82.8789 79.7314 90.1452 65.6126 86.167C50.5056 81.9182 50.3567 72.3652 50.641 69.483C50.7357 67.8187 51.0335 66.1949 51.5479 64.6659C56.7731 49.1591 69.105 50.5392 72.3809 51.2158C74.7905 51.96 75.0206 53.0831 75.8328 54.2062C81.3422 61.7161 69.2404 78.5219 54.1334 66.222C54.1334 66.222 58.1538 82.5948 76.997 82.906C93.5659 83.1902 106.345 64.1382 99.2107 47.2782C93.3222 37.4816 82.9666 30.5942 70.7024 29.6605Z"></path>
	</g>
	</svg></svg><svg style="fill: rgb(144, 190, 109);" x="83.89999771118164" y="156.95000076293945"><path d="M3.15 40L3.15-0.50L11.95-0.50Q18.50-0.50 21.23 2.50Q23.95 5.50 23.95 11.85L23.95 11.85L23.95 26.75Q23.95 33.45 21.28 36.73Q18.60 40 12.40 40L12.40 40L3.15 40ZM8.80 35.95L12 35.95Q14.95 35.95 16.28 34.80Q17.60 33.65 17.93 31.67Q18.25 29.70 18.25 25.70L18.25 25.70L18.25 12.55Q18.25 9.10 17.82 7.27Q17.40 5.45 16.05 4.57Q14.70 3.70 11.85 3.70L11.85 3.70L8.80 3.70L8.80 35.95ZM34.25 40.40Q32.60 40.40 31.28 39.45Q29.95 38.50 29.20 36.95Q28.45 35.40 28.45 33.70L28.45 33.70Q28.45 30.30 29.90 28.17Q31.35 26.05 33.60 24.80Q35.85 23.55 39.85 21.95L39.85 21.95L39.85 19.90Q39.85 17.05 39.28 15.88Q38.70 14.70 36.95 14.70L36.95 14.70Q33.90 14.70 33.90 18.80L33.90 18.80L33.90 20.25L28.60 20.05Q28.70 15.25 30.80 12.97Q32.90 10.70 37.30 10.70L37.30 10.70Q41.45 10.70 43.33 12.97Q45.20 15.25 45.20 19.85L45.20 19.85L45.20 33.05Q45.20 36.30 45.70 40L45.70 40L40.80 40Q40.25 37.15 40.10 35.75L40.10 35.75Q39.50 37.70 38.03 39.05Q36.55 40.40 34.25 40.40L34.25 40.40ZM36.35 35.80Q37.40 35.80 38.40 34.98Q39.40 34.15 39.85 33.40L39.85 33.40L39.85 25.20Q37.70 26.40 36.53 27.27Q35.35 28.15 34.58 29.30Q33.80 30.45 33.80 32.05L33.80 32.05Q33.80 33.85 34.45 34.83Q35.10 35.80 36.35 35.80L36.35 35.80ZM49.90 47.25L49.90 43.15Q52.90 43.15 54.03 42.70Q55.15 42.25 55.15 41L55.15 41Q55.15 40.40 54.05 35.70L54.05 35.70L48.25 11.10L53.65 11.10L57.55 32.70L61.30 11.10L66.70 11.10L59.80 41.60Q59.10 44.65 56.85 45.95Q54.60 47.25 50.55 47.25L50.55 47.25L49.90 47.25ZM80.75 40.45Q74.80 40.45 72.22 37.08Q69.65 33.70 69.65 27.30L69.65 27.30L69.65 11.95Q69.65 5.65 72.25 2.40Q74.85-0.85 80.75-0.85L80.75-0.85Q86.65-0.85 89.22 2.42Q91.80 5.70 91.80 11.95L91.80 11.95L91.80 27.35Q91.80 33.65 89.20 37.05Q86.60 40.45 80.75 40.45L80.75 40.45ZM80.75 36Q83.90 36 85 34.15Q86.10 32.30 86.10 28.55L86.10 28.55L86.10 10.80Q86.10 7.10 85 5.32Q83.90 3.55 80.75 3.55L80.75 3.55Q77.55 3.55 76.45 5.32Q75.35 7.10 75.35 10.80L75.35 10.80L75.35 28.55Q75.35 32.30 76.45 34.15Q77.55 36 80.75 36L80.75 36ZM101.05 40.40Q98.70 40.40 97.70 38.70Q96.70 37 96.70 34.50L96.70 34.50L96.70 11.10L102.05 11.10L102.05 32.90Q102.05 34.55 102.55 35.38Q103.05 36.20 104.35 36.20L104.35 36.20Q105.95 36.20 108.10 34.40L108.10 34.40L108.10 11.10L113.45 11.10L113.45 40L108.10 40L108.10 37.15Q104.65 40.40 101.05 40.40L101.05 40.40ZM126.60 40.40Q120.35 40.40 120.35 33.50L120.35 33.50L120.35 14.65L117.30 14.65L117.30 11.10L120.35 11.10L120.35 2.65L125.70 2.65L125.70 11.10L130.35 11.10L130.35 14.65L125.70 14.65L125.70 33.15Q125.70 34.90 126.25 35.60Q126.80 36.30 128.35 36.30L128.35 36.30Q129.35 36.30 130.30 36.15L130.30 36.15L130.30 40.10Q128.30 40.40 126.60 40.40L126.60 40.40Z"></path></svg><text fill="#569153" font-family="Verdana" font-size="14px" x="150" y="213.04999923706055"><tspan dy="0" x="150"></tspan></text></svg>